# xmcd CD database file
#
# Track frame offsets:
#	150
#	12687
#	26483
#	37983
#	50481
#	62814
#	73336
#	84930
#	96674
#	108995
#	120387
#	130408
#	143043
#	154545
#	166848
#	179174
#	191953
#	203780
#	214688
#	226340
#	238542
#	250794
#	262873
#	275528
#	289447
#
# Disc length: 4005 seconds
#
# Revision: 0
# Processed by: cddbd v1.5.1PL2 Copyright (c) Steve Scherf et al.
# Submitted via: CDex 1.51
#
DISCID=740fa319
DTITLE=Jimmy Reed - Essential Boss Man [CD1]
DYEAR=1900
DGENRE=Blues
TTITLE0=High And Lonesome
TTITLE1=You Dont Have To Go
TTITLE2=Boogie In The Dark
TTITLE3=Im Gonna Ruin You
TTITLE4=Pretty Thing
TTITLE5=I Aint Got You
TTITLE6=She Dont Want Me No More
TTITLE7=Come On Baby
TTITLE8=I Dont Go For That
TTITLE9=Baby, Dont Say That No More
TTITLE10=Aint That Lovin' You
TTITLE11=Cant Stand To See You Go
TTITLE12=When You Left Me
TTITLE13=I Love You, Baby
TTITLE14=My First Plea
TTITLE15=You Got Me Dizzy
TTITLE16=Honey, Dont Let Me Go
TTITLE17=Its You Baby
TTITLE18=Honey, Where You Going?
TTITLE19=Do The Thing
TTITLE20=Little Rain
TTITLE21=Signals Of Love
TTITLE22=The Sun Is Shining
TTITLE23=Baby, Whats On Your Mind?
TTITLE24=Odds And Ends
EXTD=
EXTT0=
EXTT1=
EXTT2=
EXTT3=
EXTT4=
EXTT5=
EXTT6=
EXTT7=
EXTT8=
EXTT9=
EXTT10=
EXTT11=
EXTT12=
EXTT13=
EXTT14=
EXTT15=
EXTT16=
EXTT17=
EXTT18=
EXTT19=
EXTT20=
EXTT21=
EXTT22=
EXTT23=
EXTT24=
PLAYORDER=
